#!OML:ASF I:\Actors\actors\Patient Classification 2\Patient 1\Session 1\actor1.ASF
:FULLY-SPECIFIED
:DEGREES
272
root -0.30313 18.7633 5.03417 7.98584 -10.9307 -2.04748
lowerback 23.4279 -1.61817 -5.21798
upperback 5.80258 -3.35278 0.00902002
thorax -6.33973 -1.58481 3.92996
lowerneck -13.6585 5.48914 10.4022
upperneck 31.7571 6.85615 -6.09542
head 13.6146 3.36902 -3.155
rclavicle -3.97569e-014 -1.35174e-014
rhumerus -33.0594 31.5518 -93.4495
rradius 114.624
rwrist -60.2313
rhand -25.5071 -40.3798
rfingers 7.12502
rthumb 1.02178 -70.3571
lclavicle -3.97569e-014 -1.35174e-014
lhumerus -29.5743 -26.9951 74.8488
lradius 81.1379
lwrist 14.4941
lhand -25.6887 -56.78
lfingers 7.12502
lthumb 0.846452 -26.8019
rfemur -5.41502 12.4413 12.5715
rtibia 1.11319e-014
rfoot -12.8402 -14.3326
rtoes -11.1778
lfemur -14.682 2.52959 -12.9639
ltibia 27.2798
lfoot -21.4665 12.7369
ltoes -55.0891
273
root -0.315998 18.7625 5.03057 8.03164 -11.3237 -1.78366
lowerback 23.3498 -1.29227 -5.46293
upperback 5.79998 -2.99082 -0.0447767
thorax -6.32773 -1.40886 3.90925
lowerneck -13.2807 5.72343 10.797
upperneck 32.1167 7.38682 -6.82142
head 13.801 3.56391 -3.44488
rclavicle -5.96354e-015 2.22639e-014
rhumerus -32.6932 32.9651 -94.544
rradius 113.806
rwrist -60.6824
rhand -26.7436 -40.2841
rfingers 7.12502
rthumb -0.172442 -70.2638
lclavicle -5.96354e-015 2.22639e-014
lhumerus -31.8784 -25.7228 74.661
lradius 81.5904
lwrist 14.631
lhand -26.7109 -57.8417
lfingers 7.12502
lthumb -0.140831 -27.862
rfemur -5.62812 12.7813 12.2439
rtibia 9.54166e-015
rfoot -12.7549 -14.4318
rtoes -11.6427
lfemur -14.7252 2.7141 -13.2524
ltibia 27.2915
lfoot -21.5624 12.8711
ltoes -55.0528
274
root -0.310115 18.7625 5.02178 8.03234 -11.4492 -1.98262
lowerback 23.5157 -1.16167 -4.93297
upperback 5.82546 -2.70879 -0.0510013
thorax -6.44188 -1.27522 3.53043
lowerneck -12.9066 5.9831 11.0045
upperneck 32.4317 7.94347 -7.34375
head 13.9618 3.7737 -3.61653
rclavicle -8.5875e-014 2.94201e-014
rhumerus -32.0854 34.5544 -95.5337
rradius 112.862
rwrist -61.2812
rhand -25.7149 -39.9509
rfingers 7.12502
rthumb 0.821064 -69.929
lclavicle -8.5875e-014 2.94201e-014
lhumerus -34.1933 -24.2979 74.473
lradius 81.9771
lwrist 15.0029
lhand -27.6338 -59.087
lfingers 7.12502
lthumb -1.03221 -29.1097
rfemur -5.65449 12.9389 12.4371
rtibia 1.43125e-014
rfoot -12.707 -14.4918
rtoes -11.8539
lfemur -14.662 2.80076 -13.0582
ltibia 27.2757
lfoot -21.5717 12.9666
ltoes -55.1041
275
root -0.290812 18.7607 5.00899 7.93852 -11.5022 -2.69338
lowerback 23.9316 -1.11935 -3.76264
upperback 5.92192 -2.39276 -0.00275447
thorax -6.62931 -1.13238 2.84135
lowerneck -12.5811 6.21703 11.0497
upperneck 32.7171 8.40955 -7.58607
head 14.0915 3.95863 -3.65963
rclavicle 3.18055e-015 2.62396e-014
rhumerus -31.1898 36.2669 -96.3965
rradius 111.812
rwrist -61.9818
rhand -25.2696 -39.8112
rfingers 7.12502
rthumb 1.25117 -69.7873
lclavicle 3.18055e-015 2.62396e-014
lhumerus -36.3981 -22.6743 74.2111
lradius 82.311
lwrist 15.6044
lhand -28.1166 -60.1675
lfingers 7.12502
lthumb -1.49854 -30.193
rfemur -5.4673 13.1206 13.1962
rtibia -6.36111e-015
rfoot -12.6828 -14.5121
rtoes -11.7937
lfemur -14.4445 2.97113 -12.3317
ltibia 27.3794
lfoot -21.5849 12.9505
ltoes -55.1781
276
root -0.291611 18.7597 4.99844 7.90306 -11.9003 -2.61027
lowerback 24.0115 -0.773891 -3.97426
upperback 6.05028 -2.00585 -0.0579242
thorax -6.55033 -0.949428 2.79231
lowerneck -12.3737 6.46634 11.0998
upperneck 32.937 8.86438 -7.77457
head 14.2174 4.14269 -3.6789
rclavicle -3.69739e-014 -5.56597e-015
rhumerus -29.8887 38.2241 -96.9592
rradius 110.654
rwrist -62.6646
rhand -26.151 -39.8335
rfingers 7.12502
rthumb 0.399947 -69.8129
lclavicle -3.69739e-014 -5.56597e-015
lhumerus -38.4384 -20.4746 73.8373
lradius 82.5793
lwrist 15.8269
lhand -28.4724 -60.9626
lfingers 7.12502
lthumb -1.84213 -30.9908
rfemur -5.57975 13.5004 13.0315
rtibia 5.56597e-015
rfoot -12.6728 -14.5026
rtoes -11.4357
lfemur -14.3784 3.25402 -12.4678
ltibia 27.4007
lfoot -21.6278 13.0878
ltoes -55.2514
277
root -0.297814 18.7589 4.98656 7.8424 -12.5032 -2.57824
lowerback 24.1592 -0.282571 -4.39124
upperback 6.18984 -1.48301 -0.086879
thorax -6.49743 -0.699521 2.85197
lowerneck -12.2457 6.70094 11.1493
upperneck 33.1055 9.26804 -7.90148
head 14.3298 4.3104 -3.67759
rclavicle -4.29375e-014 -1.51076e-014
rhumerus -28.3167 40.1814 -97.2705
rradius 109.411
rwrist -63.1863
rhand -25.5567 -40.3858
rfingers 7.12502
rthumb 0.973875 -70.3633
lclavicle -4.29375e-014 -1.51076e-014
lhumerus -40.2895 -17.9461 73.4393
lradius 82.6117
lwrist 15.634
lhand -29.0265 -61.9533
lfingers 7.12502
lthumb -2.37733 -31.9868
rfemur -5.69769 14.0951 12.9068
rtibia -7.95139e-016
rfoot -12.644 -14.4962
rtoes -10.9685
lfemur -14.203 3.74239 -12.5516
ltibia 27.3744
lfoot -21.733 13.2095
ltoes -55.2411
278
root -0.336168 18.7602 4.97824 7.80477 -13.7173 -1.97247
lowerback 24.1226 0.690885 -5.95134
upperback 6.17583 -0.624209 -0.283227
thorax -6.53468 -0.273134 3.28313
lowerneck -11.9279 6.82232 11.2412
upperneck 33.204 9.44805 -7.84672
head 14.3306 4.41536 -3.64926
rclavicle 1.66979e-014 -1.03368e-014
rhumerus -27.7458 41.6961 -98.1802
rradius 108.612
rwrist -63.0043
rhand -23.8552 -40.9836
rfingers 7.12502
rthumb 2.61717 -70.9473
lclavicle 1.66979e-014 -1.03368e-014
lhumerus -41.9752 -15.5906 72.9245
lradius 82.3784
lwrist 15.4916
lhand -29.2791 -63.0222
lfingers 7.12502
lthumb -2.62124 -33.0586
rfemur -6.09827 15.1993 12.1146
rtibia 1.86858e-014
rfoot -12.5223 -14.5383
rtoes -10.5596
lfemur -14.0191 4.61918 -13.2358
ltibia 27.2377
lfoot -21.8965 13.4622
ltoes -55.0815
279
root -0.340625 18.7608 4.97191 7.80221 -14.009 -1.70292
lowerback 24.2883 1.14108 -6.25412
upperback 6.10133 -0.15937 -0.577944
thorax -6.74476 -0.039696 2.99945
lowerneck -11.5078 6.87211 11.4818
upperneck 33.2492 9.46698 -7.71775
head 14.2686 4.48171 -3.64504
rclavicle 4.6118e-014 -3.97569e-014
rhumerus -26.5315 43.0049 -98.6504
rradius 107.435
rwrist -62.9532
rhand -23.9044 -40.7535
rfingers 7.12502
rthumb 2.56967 -70.7178
lclavicle 4.6118e-014 -3.97569e-014
lhumerus -43.4684 -13.4581 72.2294
lradius 82.5334
lwrist 15.2062
lhand -30.2997 -62.8425
lfingers 7.12502
lthumb -3.60691 -32.8932
rfemur -6.26895 15.437 11.7574
rtibia 6.75868e-015
rfoot -12.4633 -14.521
rtoes -10.169
lfemur -14.0249 4.78872 -13.5612
ltibia 27.1433
lfoot -21.9014 13.6698
ltoes -55.0871
